<svg xmlns="http://www.w3.org/2000/svg" viewBox="0 0 64 64" width="512" height="512" shape-rendering="crispEdges" role="img" aria-labelledby="title">
<title id="title">ZSG Rooms — pixel lettering</title>
<rect x="0" y="0" width="64" height="64" fill="#0d171e"/>
<rect x="2" y="2" width="60" height="60" fill="#384b52"/>
<rect x="3" y="3" width="58" height="58" fill="#192b34"/>
<rect x="4" y="4" width="56" height="27" fill="#1c303a"/>
<rect x="4" y="31" width="56" height="29" fill="#172830"/>
<rect x="2" y="2" width="1" height="1" fill="#0d171e"/>
<rect x="61" y="2" width="1" height="1" fill="#0d171e"/>
<rect x="2" y="61" width="1" height="1" fill="#0d171e"/>
<rect x="61" y="61" width="1" height="1" fill="#0d171e"/>
<rect x="5" y="3" width="54" height="1" fill="#52656a"/>
<rect x="5" y="60" width="54" height="1" fill="#102027"/>
<rect x="7" y="8" width="14" height="1" fill="#081218"/>
<rect x="27" y="8" width="12" height="1" fill="#081218"/>
<rect x="45" y="8" width="12" height="1" fill="#081218"/>
<rect x="6" y="9" width="16" height="1" fill="#081218"/>
<rect x="26" y="9" width="14" height="1" fill="#081218"/>
<rect x="44" y="9" width="14" height="1" fill="#081218"/>
<rect x="6" y="10" width="17" height="1" fill="#081218"/>
<rect x="26" y="10" width="15" height="1" fill="#081218"/>
<rect x="44" y="10" width="15" height="1" fill="#081218"/>
<rect x="6" y="11" width="18" height="1" fill="#081218"/>
<rect x="25" y="11" width="17" height="1" fill="#081218"/>
<rect x="43" y="11" width="17" height="1" fill="#081218"/>
<rect x="6" y="12" width="55" height="1" fill="#081218"/>
<rect x="6" y="13" width="55" height="1" fill="#081218"/>
<rect x="6" y="14" width="55" height="1" fill="#081218"/>
<rect x="7" y="15" width="54" height="1" fill="#081218"/>
<rect x="8" y="16" width="53" height="1" fill="#081218"/>
<rect x="9" y="17" width="52" height="1" fill="#081218"/>
<rect x="10" y="18" width="50" height="1" fill="#081218"/>
<rect x="14" y="19" width="19" height="1" fill="#081218"/>
<rect x="42" y="19" width="9" height="1" fill="#081218"/>
<rect x="13" y="20" width="24" height="1" fill="#081218"/>
<rect x="42" y="20" width="15" height="1" fill="#081218"/>
<rect x="12" y="21" width="12" height="1" fill="#081218"/>
<rect x="25" y="21" width="13" height="1" fill="#081218"/>
<rect x="42" y="21" width="16" height="1" fill="#081218"/>
<rect x="12" y="22" width="11" height="1" fill="#081218"/>
<rect x="26" y="22" width="13" height="1" fill="#081218"/>
<rect x="42" y="22" width="17" height="1" fill="#081218"/>
<rect x="11" y="23" width="12" height="1" fill="#081218"/>
<rect x="26" y="23" width="14" height="1" fill="#081218"/>
<rect x="42" y="23" width="18" height="1" fill="#081218"/>
<rect x="10" y="24" width="12" height="1" fill="#081218"/>
<rect x="27" y="24" width="14" height="1" fill="#081218"/>
<rect x="42" y="24" width="19" height="1" fill="#081218"/>
<rect x="10" y="25" width="11" height="1" fill="#081218"/>
<rect x="28" y="25" width="13" height="1" fill="#081218"/>
<rect x="42" y="25" width="19" height="1" fill="#081218"/>
<rect x="9" y="26" width="12" height="1" fill="#081218"/>
<rect x="29" y="26" width="32" height="1" fill="#081218"/>
<rect x="8" y="27" width="12" height="1" fill="#081218"/>
<rect x="30" y="27" width="21" height="1" fill="#081218"/>
<rect x="52" y="27" width="9" height="1" fill="#081218"/>
<rect x="8" y="28" width="11" height="1" fill="#081218"/>
<rect x="34" y="28" width="17" height="1" fill="#081218"/>
<rect x="52" y="28" width="9" height="1" fill="#081218"/>
<rect x="7" y="29" width="14" height="1" fill="#081218"/>
<rect x="25" y="29" width="36" height="1" fill="#081218"/>
<rect x="6" y="30" width="16" height="1" fill="#081218"/>
<rect x="24" y="30" width="37" height="1" fill="#081218"/>
<rect x="6" y="31" width="17" height="1" fill="#081218"/>
<rect x="24" y="31" width="37" height="1" fill="#081218"/>
<rect x="6" y="32" width="55" height="1" fill="#081218"/>
<rect x="6" y="33" width="55" height="1" fill="#081218"/>
<rect x="6" y="34" width="37" height="1" fill="#081218"/>
<rect x="44" y="34" width="17" height="1" fill="#081218"/>
<rect x="6" y="35" width="37" height="1" fill="#081218"/>
<rect x="44" y="35" width="17" height="1" fill="#081218"/>
<rect x="7" y="36" width="35" height="1" fill="#081218"/>
<rect x="45" y="36" width="15" height="1" fill="#081218"/>
<rect x="8" y="37" width="17" height="1" fill="#081218"/>
<rect x="26" y="37" width="15" height="1" fill="#081218"/>
<rect x="46" y="37" width="13" height="1" fill="#081218"/>
<rect x="9" y="38" width="16" height="1" fill="#081218"/>
<rect x="27" y="38" width="14" height="1" fill="#081218"/>
<rect x="47" y="38" width="12" height="1" fill="#081218"/>
<rect x="10" y="39" width="14" height="1" fill="#081218"/>
<rect x="28" y="39" width="12" height="1" fill="#081218"/>
<rect x="48" y="39" width="10" height="1" fill="#081218"/>
<rect x="8" y="10" width="14" height="1" fill="#35494e"/>
<rect x="28" y="10" width="12" height="1" fill="#35494e"/>
<rect x="46" y="10" width="12" height="1" fill="#35494e"/>
<rect x="8" y="11" width="15" height="1" fill="#35494e"/>
<rect x="28" y="11" width="13" height="1" fill="#35494e"/>
<rect x="46" y="11" width="13" height="1" fill="#35494e"/>
<rect x="8" y="12" width="16" height="1" fill="#35494e"/>
<rect x="28" y="12" width="14" height="1" fill="#35494e"/>
<rect x="46" y="12" width="14" height="1" fill="#35494e"/>
<rect x="8" y="13" width="16" height="1" fill="#35494e"/>
<rect x="26" y="13" width="16" height="1" fill="#35494e"/>
<rect x="44" y="13" width="16" height="1" fill="#35494e"/>
<rect x="8" y="14" width="16" height="1" fill="#35494e"/>
<rect x="26" y="14" width="16" height="1" fill="#35494e"/>
<rect x="44" y="14" width="16" height="1" fill="#35494e"/>
<rect x="8" y="15" width="16" height="1" fill="#35494e"/>
<rect x="26" y="15" width="16" height="1" fill="#35494e"/>
<rect x="44" y="15" width="16" height="1" fill="#35494e"/>
<rect x="9" y="16" width="15" height="1" fill="#35494e"/>
<rect x="26" y="16" width="16" height="1" fill="#35494e"/>
<rect x="44" y="16" width="16" height="1" fill="#35494e"/>
<rect x="10" y="17" width="14" height="1" fill="#35494e"/>
<rect x="26" y="17" width="16" height="1" fill="#35494e"/>
<rect x="44" y="17" width="16" height="1" fill="#35494e"/>
<rect x="18" y="18" width="6" height="1" fill="#35494e"/>
<rect x="26" y="18" width="6" height="1" fill="#35494e"/>
<rect x="44" y="18" width="6" height="1" fill="#35494e"/>
<rect x="16" y="19" width="8" height="1" fill="#35494e"/>
<rect x="26" y="19" width="6" height="1" fill="#35494e"/>
<rect x="44" y="19" width="6" height="1" fill="#35494e"/>
<rect x="16" y="20" width="8" height="1" fill="#35494e"/>
<rect x="26" y="20" width="6" height="1" fill="#35494e"/>
<rect x="44" y="20" width="6" height="1" fill="#35494e"/>
<rect x="16" y="21" width="6" height="1" fill="#35494e"/>
<rect x="26" y="21" width="6" height="1" fill="#35494e"/>
<rect x="44" y="21" width="6" height="1" fill="#35494e"/>
<rect x="14" y="22" width="8" height="1" fill="#35494e"/>
<rect x="27" y="22" width="11" height="1" fill="#35494e"/>
<rect x="44" y="22" width="14" height="1" fill="#35494e"/>
<rect x="14" y="23" width="8" height="1" fill="#35494e"/>
<rect x="28" y="23" width="11" height="1" fill="#35494e"/>
<rect x="44" y="23" width="15" height="1" fill="#35494e"/>
<rect x="14" y="24" width="6" height="1" fill="#35494e"/>
<rect x="28" y="24" width="12" height="1" fill="#35494e"/>
<rect x="44" y="24" width="16" height="1" fill="#35494e"/>
<rect x="12" y="25" width="8" height="1" fill="#35494e"/>
<rect x="29" y="25" width="11" height="1" fill="#35494e"/>
<rect x="44" y="25" width="6" height="1" fill="#35494e"/>
<rect x="51" y="25" width="9" height="1" fill="#35494e"/>
<rect x="12" y="26" width="8" height="1" fill="#35494e"/>
<rect x="30" y="26" width="11" height="1" fill="#35494e"/>
<rect x="44" y="26" width="6" height="1" fill="#35494e"/>
<rect x="52" y="26" width="8" height="1" fill="#35494e"/>
<rect x="12" y="27" width="6" height="1" fill="#35494e"/>
<rect x="36" y="27" width="6" height="1" fill="#35494e"/>
<rect x="44" y="27" width="6" height="1" fill="#35494e"/>
<rect x="54" y="27" width="6" height="1" fill="#35494e"/>
<rect x="10" y="28" width="8" height="1" fill="#35494e"/>
<rect x="36" y="28" width="6" height="1" fill="#35494e"/>
<rect x="44" y="28" width="6" height="1" fill="#35494e"/>
<rect x="54" y="28" width="6" height="1" fill="#35494e"/>
<rect x="10" y="29" width="8" height="1" fill="#35494e"/>
<rect x="36" y="29" width="6" height="1" fill="#35494e"/>
<rect x="44" y="29" width="6" height="1" fill="#35494e"/>
<rect x="54" y="29" width="6" height="1" fill="#35494e"/>
<rect x="10" y="30" width="6" height="1" fill="#35494e"/>
<rect x="36" y="30" width="6" height="1" fill="#35494e"/>
<rect x="44" y="30" width="6" height="1" fill="#35494e"/>
<rect x="54" y="30" width="6" height="1" fill="#35494e"/>
<rect x="8" y="31" width="14" height="1" fill="#35494e"/>
<rect x="26" y="31" width="16" height="1" fill="#35494e"/>
<rect x="44" y="31" width="16" height="1" fill="#35494e"/>
<rect x="8" y="32" width="15" height="1" fill="#35494e"/>
<rect x="26" y="32" width="16" height="1" fill="#35494e"/>
<rect x="44" y="32" width="16" height="1" fill="#35494e"/>
<rect x="8" y="33" width="16" height="1" fill="#35494e"/>
<rect x="26" y="33" width="16" height="1" fill="#35494e"/>
<rect x="44" y="33" width="16" height="1" fill="#35494e"/>
<rect x="8" y="34" width="16" height="1" fill="#35494e"/>
<rect x="26" y="34" width="16" height="1" fill="#35494e"/>
<rect x="45" y="34" width="15" height="1" fill="#35494e"/>
<rect x="8" y="35" width="16" height="1" fill="#35494e"/>
<rect x="26" y="35" width="16" height="1" fill="#35494e"/>
<rect x="46" y="35" width="14" height="1" fill="#35494e"/>
<rect x="8" y="36" width="16" height="1" fill="#35494e"/>
<rect x="26" y="36" width="14" height="1" fill="#35494e"/>
<rect x="46" y="36" width="12" height="1" fill="#35494e"/>
<rect x="9" y="37" width="15" height="1" fill="#35494e"/>
<rect x="27" y="37" width="13" height="1" fill="#35494e"/>
<rect x="47" y="37" width="11" height="1" fill="#35494e"/>
<rect x="10" y="38" width="14" height="1" fill="#35494e"/>
<rect x="28" y="38" width="12" height="1" fill="#35494e"/>
<rect x="48" y="38" width="10" height="1" fill="#35494e"/>
<rect x="7" y="9" width="14" height="1" fill="#edf0e6"/>
<rect x="27" y="9" width="12" height="1" fill="#edf0e6"/>
<rect x="45" y="9" width="12" height="1" fill="#edf0e6"/>
<rect x="7" y="10" width="14" height="1" fill="#edf0e6"/>
<rect x="27" y="10" width="12" height="1" fill="#edf0e6"/>
<rect x="45" y="10" width="12" height="1" fill="#edf0e6"/>
<rect x="7" y="11" width="14" height="1" fill="#edf0e6"/>
<rect x="27" y="11" width="12" height="1" fill="#edf0e6"/>
<rect x="45" y="11" width="12" height="1" fill="#edf0e6"/>
<rect x="7" y="12" width="14" height="1" fill="#edf0e6"/>
<rect x="25" y="12" width="14" height="1" fill="#edf0e6"/>
<rect x="43" y="12" width="14" height="1" fill="#edf0e6"/>
<rect x="7" y="13" width="14" height="1" fill="#edf0e6"/>
<rect x="25" y="13" width="14" height="1" fill="#edf0e6"/>
<rect x="43" y="13" width="14" height="1" fill="#edf0e6"/>
<rect x="7" y="14" width="14" height="1" fill="#edf0e6"/>
<rect x="25" y="14" width="14" height="1" fill="#edf0e6"/>
<rect x="43" y="14" width="14" height="1" fill="#edf0e6"/>
<rect x="17" y="15" width="4" height="1" fill="#edf0e6"/>
<rect x="25" y="15" width="4" height="1" fill="#edf0e6"/>
<rect x="43" y="15" width="4" height="1" fill="#edf0e6"/>
<rect x="17" y="16" width="4" height="1" fill="#edf0e6"/>
<rect x="25" y="16" width="4" height="1" fill="#edf0e6"/>
<rect x="43" y="16" width="4" height="1" fill="#edf0e6"/>
<rect x="17" y="17" width="4" height="1" fill="#edf0e6"/>
<rect x="25" y="17" width="4" height="1" fill="#edf0e6"/>
<rect x="43" y="17" width="4" height="1" fill="#edf0e6"/>
<rect x="15" y="18" width="4" height="1" fill="#edf0e6"/>
<rect x="25" y="18" width="4" height="1" fill="#edf0e6"/>
<rect x="43" y="18" width="4" height="1" fill="#edf0e6"/>
<rect x="15" y="19" width="4" height="1" fill="#edf0e6"/>
<rect x="25" y="19" width="4" height="1" fill="#edf0e6"/>
<rect x="43" y="19" width="4" height="1" fill="#edf0e6"/>
<rect x="15" y="20" width="4" height="1" fill="#edf0e6"/>
<rect x="25" y="20" width="4" height="1" fill="#edf0e6"/>
<rect x="43" y="20" width="4" height="1" fill="#edf0e6"/>
<rect x="13" y="21" width="4" height="1" fill="#edf0e6"/>
<rect x="27" y="21" width="10" height="1" fill="#edf0e6"/>
<rect x="43" y="21" width="4" height="1" fill="#edf0e6"/>
<rect x="49" y="21" width="8" height="1" fill="#edf0e6"/>
<rect x="13" y="22" width="4" height="1" fill="#c4d2cf"/>
<rect x="27" y="22" width="10" height="1" fill="#c4d2cf"/>
<rect x="43" y="22" width="4" height="1" fill="#c4d2cf"/>
<rect x="49" y="22" width="8" height="1" fill="#c4d2cf"/>
<rect x="13" y="23" width="4" height="1" fill="#c4d2cf"/>
<rect x="27" y="23" width="10" height="1" fill="#c4d2cf"/>
<rect x="43" y="23" width="4" height="1" fill="#c4d2cf"/>
<rect x="49" y="23" width="8" height="1" fill="#c4d2cf"/>
<rect x="11" y="24" width="4" height="1" fill="#c4d2cf"/>
<rect x="35" y="24" width="4" height="1" fill="#c4d2cf"/>
<rect x="43" y="24" width="4" height="1" fill="#c4d2cf"/>
<rect x="53" y="24" width="4" height="1" fill="#c4d2cf"/>
<rect x="11" y="25" width="4" height="1" fill="#c4d2cf"/>
<rect x="35" y="25" width="4" height="1" fill="#c4d2cf"/>
<rect x="43" y="25" width="4" height="1" fill="#c4d2cf"/>
<rect x="53" y="25" width="4" height="1" fill="#c4d2cf"/>
<rect x="11" y="26" width="4" height="1" fill="#c4d2cf"/>
<rect x="35" y="26" width="4" height="1" fill="#c4d2cf"/>
<rect x="43" y="26" width="4" height="1" fill="#c4d2cf"/>
<rect x="53" y="26" width="4" height="1" fill="#c4d2cf"/>
<rect x="9" y="27" width="4" height="1" fill="#c4d2cf"/>
<rect x="35" y="27" width="4" height="1" fill="#c4d2cf"/>
<rect x="43" y="27" width="4" height="1" fill="#c4d2cf"/>
<rect x="53" y="27" width="4" height="1" fill="#c4d2cf"/>
<rect x="9" y="28" width="4" height="1" fill="#c4d2cf"/>
<rect x="35" y="28" width="4" height="1" fill="#c4d2cf"/>
<rect x="43" y="28" width="4" height="1" fill="#c4d2cf"/>
<rect x="53" y="28" width="4" height="1" fill="#c4d2cf"/>
<rect x="9" y="29" width="4" height="1" fill="#c4d2cf"/>
<rect x="35" y="29" width="4" height="1" fill="#c4d2cf"/>
<rect x="43" y="29" width="4" height="1" fill="#c4d2cf"/>
<rect x="53" y="29" width="4" height="1" fill="#c4d2cf"/>
<rect x="7" y="30" width="14" height="1" fill="#c4d2cf"/>
<rect x="25" y="30" width="14" height="1" fill="#c4d2cf"/>
<rect x="43" y="30" width="14" height="1" fill="#c4d2cf"/>
<rect x="7" y="31" width="14" height="1" fill="#c4d2cf"/>
<rect x="25" y="31" width="14" height="1" fill="#c4d2cf"/>
<rect x="43" y="31" width="14" height="1" fill="#c4d2cf"/>
<rect x="7" y="32" width="14" height="1" fill="#c4d2cf"/>
<rect x="25" y="32" width="14" height="1" fill="#c4d2cf"/>
<rect x="43" y="32" width="14" height="1" fill="#c4d2cf"/>
<rect x="7" y="33" width="14" height="1" fill="#c4d2cf"/>
<rect x="25" y="33" width="12" height="1" fill="#c4d2cf"/>
<rect x="45" y="33" width="10" height="1" fill="#c4d2cf"/>
<rect x="7" y="34" width="14" height="1" fill="#c4d2cf"/>
<rect x="25" y="34" width="12" height="1" fill="#c4d2cf"/>
<rect x="45" y="34" width="10" height="1" fill="#c4d2cf"/>
<rect x="7" y="35" width="14" height="1" fill="#c4d2cf"/>
<rect x="25" y="35" width="12" height="1" fill="#c4d2cf"/>
<rect x="45" y="35" width="10" height="1" fill="#c4d2cf"/>
<rect x="7" y="9" width="14" height="1" fill="#ffffff"/>
<rect x="27" y="9" width="12" height="1" fill="#ffffff"/>
<rect x="45" y="9" width="12" height="1" fill="#ffffff"/>
<rect x="25" y="12" width="2" height="1" fill="#ffffff"/>
<rect x="43" y="12" width="2" height="1" fill="#ffffff"/>
<rect x="15" y="18" width="2" height="1" fill="#ffffff"/>
<rect x="13" y="21" width="2" height="1" fill="#ffffff"/>
<rect x="29" y="21" width="8" height="1" fill="#ffffff"/>
<rect x="49" y="21" width="8" height="1" fill="#ffffff"/>
<rect x="11" y="24" width="2" height="1" fill="#ffffff"/>
<rect x="37" y="24" width="2" height="1" fill="#ffffff"/>
<rect x="9" y="27" width="2" height="1" fill="#ffffff"/>
<rect x="7" y="30" width="2" height="1" fill="#ffffff"/>
<rect x="13" y="30" width="8" height="1" fill="#ffffff"/>
<rect x="25" y="30" width="10" height="1" fill="#ffffff"/>
<rect x="47" y="30" width="6" height="1" fill="#ffffff"/>
<rect x="5" y="43" width="8" height="1" fill="#081218"/>
<rect x="18" y="43" width="6" height="1" fill="#081218"/>
<rect x="29" y="43" width="6" height="1" fill="#081218"/>
<rect x="38" y="43" width="2" height="1" fill="#081218"/>
<rect x="46" y="43" width="2" height="1" fill="#081218"/>
<rect x="51" y="43" width="8" height="1" fill="#081218"/>
<rect x="4" y="44" width="10" height="1" fill="#081218"/>
<rect x="17" y="44" width="8" height="1" fill="#081218"/>
<rect x="28" y="44" width="8" height="1" fill="#081218"/>
<rect x="37" y="44" width="4" height="1" fill="#081218"/>
<rect x="45" y="44" width="4" height="1" fill="#081218"/>
<rect x="50" y="44" width="10" height="1" fill="#081218"/>
<rect x="4" y="45" width="11" height="1" fill="#081218"/>
<rect x="16" y="45" width="10" height="1" fill="#081218"/>
<rect x="27" y="45" width="15" height="1" fill="#081218"/>
<rect x="44" y="45" width="17" height="1" fill="#081218"/>
<rect x="4" y="46" width="58" height="1" fill="#081218"/>
<rect x="4" y="47" width="58" height="1" fill="#081218"/>
<rect x="4" y="48" width="57" height="1" fill="#081218"/>
<rect x="4" y="49" width="17" height="1" fill="#081218"/>
<rect x="23" y="49" width="9" height="1" fill="#081218"/>
<rect x="34" y="49" width="23" height="1" fill="#081218"/>
<rect x="4" y="50" width="17" height="1" fill="#081218"/>
<rect x="23" y="50" width="9" height="1" fill="#081218"/>
<rect x="34" y="50" width="24" height="1" fill="#081218"/>
<rect x="4" y="51" width="17" height="1" fill="#081218"/>
<rect x="23" y="51" width="9" height="1" fill="#081218"/>
<rect x="34" y="51" width="25" height="1" fill="#081218"/>
<rect x="4" y="52" width="17" height="1" fill="#081218"/>
<rect x="23" y="52" width="9" height="1" fill="#081218"/>
<rect x="34" y="52" width="26" height="1" fill="#081218"/>
<rect x="4" y="53" width="17" height="1" fill="#081218"/>
<rect x="23" y="53" width="9" height="1" fill="#081218"/>
<rect x="34" y="53" width="17" height="1" fill="#081218"/>
<rect x="52" y="53" width="9" height="1" fill="#081218"/>
<rect x="4" y="54" width="17" height="1" fill="#081218"/>
<rect x="23" y="54" width="9" height="1" fill="#081218"/>
<rect x="34" y="54" width="9" height="1" fill="#081218"/>
<rect x="44" y="54" width="7" height="1" fill="#081218"/>
<rect x="53" y="54" width="9" height="1" fill="#081218"/>
<rect x="4" y="55" width="39" height="1" fill="#081218"/>
<rect x="45" y="55" width="17" height="1" fill="#081218"/>
<rect x="4" y="56" width="6" height="1" fill="#081218"/>
<rect x="11" y="56" width="32" height="1" fill="#081218"/>
<rect x="45" y="56" width="17" height="1" fill="#081218"/>
<rect x="4" y="57" width="6" height="1" fill="#081218"/>
<rect x="12" y="57" width="31" height="1" fill="#081218"/>
<rect x="45" y="57" width="17" height="1" fill="#081218"/>
<rect x="5" y="58" width="5" height="1" fill="#081218"/>
<rect x="13" y="58" width="15" height="1" fill="#081218"/>
<rect x="29" y="58" width="14" height="1" fill="#081218"/>
<rect x="46" y="58" width="15" height="1" fill="#081218"/>
<rect x="6" y="59" width="4" height="1" fill="#081218"/>
<rect x="14" y="59" width="4" height="1" fill="#081218"/>
<rect x="19" y="59" width="8" height="1" fill="#081218"/>
<rect x="30" y="59" width="8" height="1" fill="#081218"/>
<rect x="39" y="59" width="4" height="1" fill="#081218"/>
<rect x="47" y="59" width="13" height="1" fill="#081218"/>
<rect x="7" y="60" width="2" height="1" fill="#081218"/>
<rect x="15" y="60" width="2" height="1" fill="#081218"/>
<rect x="20" y="60" width="6" height="1" fill="#081218"/>
<rect x="31" y="60" width="6" height="1" fill="#081218"/>
<rect x="40" y="60" width="2" height="1" fill="#081218"/>
<rect x="48" y="60" width="2" height="1" fill="#081218"/>
<rect x="51" y="60" width="8" height="1" fill="#081218"/>
<rect x="6" y="45" width="8" height="1" fill="#735129"/>
<rect x="19" y="45" width="6" height="1" fill="#735129"/>
<rect x="30" y="45" width="6" height="1" fill="#735129"/>
<rect x="39" y="45" width="2" height="1" fill="#735129"/>
<rect x="47" y="45" width="2" height="1" fill="#735129"/>
<rect x="52" y="45" width="8" height="1" fill="#735129"/>
<rect x="6" y="46" width="9" height="1" fill="#735129"/>
<rect x="19" y="46" width="7" height="1" fill="#735129"/>
<rect x="30" y="46" width="7" height="1" fill="#735129"/>
<rect x="39" y="46" width="3" height="1" fill="#735129"/>
<rect x="47" y="46" width="3" height="1" fill="#735129"/>
<rect x="52" y="46" width="9" height="1" fill="#735129"/>
<rect x="6" y="47" width="10" height="1" fill="#735129"/>
<rect x="17" y="47" width="2" height="1" fill="#735129"/>
<rect x="20" y="47" width="7" height="1" fill="#735129"/>
<rect x="28" y="47" width="2" height="1" fill="#735129"/>
<rect x="31" y="47" width="7" height="1" fill="#735129"/>
<rect x="39" y="47" width="4" height="1" fill="#735129"/>
<rect x="45" y="47" width="7" height="1" fill="#735129"/>
<rect x="53" y="47" width="8" height="1" fill="#735129"/>
<rect x="6" y="48" width="3" height="1" fill="#735129"/>
<rect x="14" y="48" width="6" height="1" fill="#735129"/>
<rect x="25" y="48" width="6" height="1" fill="#735129"/>
<rect x="36" y="48" width="8" height="1" fill="#735129"/>
<rect x="45" y="48" width="8" height="1" fill="#735129"/>
<rect x="6" y="49" width="3" height="1" fill="#735129"/>
<rect x="14" y="49" width="6" height="1" fill="#735129"/>
<rect x="25" y="49" width="6" height="1" fill="#735129"/>
<rect x="36" y="49" width="9" height="1" fill="#735129"/>
<rect x="46" y="49" width="7" height="1" fill="#735129"/>
<rect x="6" y="50" width="3" height="1" fill="#735129"/>
<rect x="14" y="50" width="6" height="1" fill="#735129"/>
<rect x="25" y="50" width="6" height="1" fill="#735129"/>
<rect x="36" y="50" width="6" height="1" fill="#735129"/>
<rect x="43" y="50" width="3" height="1" fill="#735129"/>
<rect x="47" y="50" width="6" height="1" fill="#735129"/>
<rect x="6" y="51" width="8" height="1" fill="#735129"/>
<rect x="15" y="51" width="5" height="1" fill="#735129"/>
<rect x="25" y="51" width="6" height="1" fill="#735129"/>
<rect x="36" y="51" width="6" height="1" fill="#735129"/>
<rect x="43" y="51" width="3" height="1" fill="#735129"/>
<rect x="47" y="51" width="3" height="1" fill="#735129"/>
<rect x="51" y="51" width="7" height="1" fill="#735129"/>
<rect x="6" y="52" width="9" height="1" fill="#735129"/>
<rect x="17" y="52" width="3" height="1" fill="#735129"/>
<rect x="25" y="52" width="6" height="1" fill="#735129"/>
<rect x="36" y="52" width="6" height="1" fill="#735129"/>
<rect x="43" y="52" width="3" height="1" fill="#735129"/>
<rect x="47" y="52" width="3" height="1" fill="#735129"/>
<rect x="52" y="52" width="7" height="1" fill="#735129"/>
<rect x="6" y="53" width="9" height="1" fill="#735129"/>
<rect x="17" y="53" width="3" height="1" fill="#735129"/>
<rect x="25" y="53" width="6" height="1" fill="#735129"/>
<rect x="36" y="53" width="6" height="1" fill="#735129"/>
<rect x="44" y="53" width="2" height="1" fill="#735129"/>
<rect x="47" y="53" width="3" height="1" fill="#735129"/>
<rect x="53" y="53" width="7" height="1" fill="#735129"/>
<rect x="6" y="54" width="3" height="1" fill="#735129"/>
<rect x="10" y="54" width="3" height="1" fill="#735129"/>
<rect x="17" y="54" width="3" height="1" fill="#735129"/>
<rect x="25" y="54" width="6" height="1" fill="#735129"/>
<rect x="36" y="54" width="6" height="1" fill="#735129"/>
<rect x="47" y="54" width="3" height="1" fill="#735129"/>
<rect x="58" y="54" width="3" height="1" fill="#735129"/>
<rect x="6" y="55" width="3" height="1" fill="#735129"/>
<rect x="11" y="55" width="3" height="1" fill="#735129"/>
<rect x="17" y="55" width="3" height="1" fill="#735129"/>
<rect x="25" y="55" width="6" height="1" fill="#735129"/>
<rect x="36" y="55" width="6" height="1" fill="#735129"/>
<rect x="47" y="55" width="3" height="1" fill="#735129"/>
<rect x="58" y="55" width="3" height="1" fill="#735129"/>
<rect x="6" y="56" width="3" height="1" fill="#735129"/>
<rect x="12" y="56" width="3" height="1" fill="#735129"/>
<rect x="17" y="56" width="3" height="1" fill="#735129"/>
<rect x="25" y="56" width="6" height="1" fill="#735129"/>
<rect x="36" y="56" width="6" height="1" fill="#735129"/>
<rect x="47" y="56" width="3" height="1" fill="#735129"/>
<rect x="58" y="56" width="3" height="1" fill="#735129"/>
<rect x="6" y="57" width="3" height="1" fill="#735129"/>
<rect x="13" y="57" width="3" height="1" fill="#735129"/>
<rect x="18" y="57" width="7" height="1" fill="#735129"/>
<rect x="26" y="57" width="2" height="1" fill="#735129"/>
<rect x="29" y="57" width="7" height="1" fill="#735129"/>
<rect x="37" y="57" width="5" height="1" fill="#735129"/>
<rect x="47" y="57" width="11" height="1" fill="#735129"/>
<rect x="59" y="57" width="2" height="1" fill="#735129"/>
<rect x="6" y="58" width="3" height="1" fill="#735129"/>
<rect x="14" y="58" width="3" height="1" fill="#735129"/>
<rect x="19" y="58" width="7" height="1" fill="#735129"/>
<rect x="30" y="58" width="7" height="1" fill="#735129"/>
<rect x="39" y="58" width="3" height="1" fill="#735129"/>
<rect x="47" y="58" width="12" height="1" fill="#735129"/>
<rect x="7" y="59" width="2" height="1" fill="#735129"/>
<rect x="15" y="59" width="2" height="1" fill="#735129"/>
<rect x="20" y="59" width="6" height="1" fill="#735129"/>
<rect x="31" y="59" width="6" height="1" fill="#735129"/>
<rect x="40" y="59" width="2" height="1" fill="#735129"/>
<rect x="48" y="59" width="2" height="1" fill="#735129"/>
<rect x="51" y="59" width="8" height="1" fill="#735129"/>
<rect x="5" y="44" width="8" height="1" fill="#efc56e"/>
<rect x="18" y="44" width="6" height="1" fill="#efc56e"/>
<rect x="29" y="44" width="6" height="1" fill="#efc56e"/>
<rect x="38" y="44" width="2" height="1" fill="#efc56e"/>
<rect x="46" y="44" width="2" height="1" fill="#efc56e"/>
<rect x="51" y="44" width="8" height="1" fill="#efc56e"/>
<rect x="5" y="45" width="8" height="1" fill="#efc56e"/>
<rect x="18" y="45" width="6" height="1" fill="#efc56e"/>
<rect x="29" y="45" width="6" height="1" fill="#efc56e"/>
<rect x="38" y="45" width="2" height="1" fill="#efc56e"/>
<rect x="46" y="45" width="2" height="1" fill="#efc56e"/>
<rect x="51" y="45" width="8" height="1" fill="#efc56e"/>
<rect x="5" y="46" width="2" height="1" fill="#efc56e"/>
<rect x="13" y="46" width="2" height="1" fill="#efc56e"/>
<rect x="16" y="46" width="2" height="1" fill="#efc56e"/>
<rect x="24" y="46" width="2" height="1" fill="#efc56e"/>
<rect x="27" y="46" width="2" height="1" fill="#efc56e"/>
<rect x="35" y="46" width="2" height="1" fill="#efc56e"/>
<rect x="38" y="46" width="4" height="1" fill="#efc56e"/>
<rect x="44" y="46" width="4" height="1" fill="#efc56e"/>
<rect x="49" y="46" width="2" height="1" fill="#efc56e"/>
<rect x="5" y="47" width="2" height="1" fill="#efc56e"/>
<rect x="13" y="47" width="2" height="1" fill="#efc56e"/>
<rect x="16" y="47" width="2" height="1" fill="#efc56e"/>
<rect x="24" y="47" width="2" height="1" fill="#efc56e"/>
<rect x="27" y="47" width="2" height="1" fill="#efc56e"/>
<rect x="35" y="47" width="2" height="1" fill="#efc56e"/>
<rect x="38" y="47" width="4" height="1" fill="#efc56e"/>
<rect x="44" y="47" width="4" height="1" fill="#efc56e"/>
<rect x="49" y="47" width="2" height="1" fill="#efc56e"/>
<rect x="5" y="48" width="2" height="1" fill="#efc56e"/>
<rect x="13" y="48" width="2" height="1" fill="#efc56e"/>
<rect x="16" y="48" width="2" height="1" fill="#efc56e"/>
<rect x="24" y="48" width="2" height="1" fill="#efc56e"/>
<rect x="27" y="48" width="2" height="1" fill="#efc56e"/>
<rect x="35" y="48" width="2" height="1" fill="#efc56e"/>
<rect x="38" y="48" width="2" height="1" fill="#efc56e"/>
<rect x="42" y="48" width="2" height="1" fill="#efc56e"/>
<rect x="46" y="48" width="2" height="1" fill="#efc56e"/>
<rect x="49" y="48" width="2" height="1" fill="#efc56e"/>
<rect x="5" y="49" width="2" height="1" fill="#efc56e"/>
<rect x="13" y="49" width="2" height="1" fill="#efc56e"/>
<rect x="16" y="49" width="2" height="1" fill="#efc56e"/>
<rect x="24" y="49" width="2" height="1" fill="#efc56e"/>
<rect x="27" y="49" width="2" height="1" fill="#efc56e"/>
<rect x="35" y="49" width="2" height="1" fill="#efc56e"/>
<rect x="38" y="49" width="2" height="1" fill="#efc56e"/>
<rect x="42" y="49" width="2" height="1" fill="#efc56e"/>
<rect x="46" y="49" width="2" height="1" fill="#efc56e"/>
<rect x="49" y="49" width="2" height="1" fill="#efc56e"/>
<rect x="5" y="50" width="8" height="1" fill="#efc56e"/>
<rect x="16" y="50" width="2" height="1" fill="#efc56e"/>
<rect x="24" y="50" width="2" height="1" fill="#efc56e"/>
<rect x="27" y="50" width="2" height="1" fill="#efc56e"/>
<rect x="35" y="50" width="2" height="1" fill="#efc56e"/>
<rect x="38" y="50" width="2" height="1" fill="#efc56e"/>
<rect x="42" y="50" width="2" height="1" fill="#efc56e"/>
<rect x="46" y="50" width="2" height="1" fill="#efc56e"/>
<rect x="51" y="50" width="6" height="1" fill="#efc56e"/>
<rect x="5" y="51" width="8" height="1" fill="#d7a64e"/>
<rect x="16" y="51" width="2" height="1" fill="#d7a64e"/>
<rect x="24" y="51" width="2" height="1" fill="#d7a64e"/>
<rect x="27" y="51" width="2" height="1" fill="#d7a64e"/>
<rect x="35" y="51" width="2" height="1" fill="#d7a64e"/>
<rect x="38" y="51" width="2" height="1" fill="#d7a64e"/>
<rect x="42" y="51" width="2" height="1" fill="#d7a64e"/>
<rect x="46" y="51" width="2" height="1" fill="#d7a64e"/>
<rect x="51" y="51" width="6" height="1" fill="#d7a64e"/>
<rect x="5" y="52" width="2" height="1" fill="#d7a64e"/>
<rect x="9" y="52" width="2" height="1" fill="#d7a64e"/>
<rect x="16" y="52" width="2" height="1" fill="#d7a64e"/>
<rect x="24" y="52" width="2" height="1" fill="#d7a64e"/>
<rect x="27" y="52" width="2" height="1" fill="#d7a64e"/>
<rect x="35" y="52" width="2" height="1" fill="#d7a64e"/>
<rect x="38" y="52" width="2" height="1" fill="#d7a64e"/>
<rect x="46" y="52" width="2" height="1" fill="#d7a64e"/>
<rect x="57" y="52" width="2" height="1" fill="#d7a64e"/>
<rect x="5" y="53" width="2" height="1" fill="#d7a64e"/>
<rect x="9" y="53" width="2" height="1" fill="#d7a64e"/>
<rect x="16" y="53" width="2" height="1" fill="#d7a64e"/>
<rect x="24" y="53" width="2" height="1" fill="#d7a64e"/>
<rect x="27" y="53" width="2" height="1" fill="#d7a64e"/>
<rect x="35" y="53" width="2" height="1" fill="#d7a64e"/>
<rect x="38" y="53" width="2" height="1" fill="#d7a64e"/>
<rect x="46" y="53" width="2" height="1" fill="#d7a64e"/>
<rect x="57" y="53" width="2" height="1" fill="#d7a64e"/>
<rect x="5" y="54" width="2" height="1" fill="#d7a64e"/>
<rect x="11" y="54" width="2" height="1" fill="#d7a64e"/>
<rect x="16" y="54" width="2" height="1" fill="#d7a64e"/>
<rect x="24" y="54" width="2" height="1" fill="#d7a64e"/>
<rect x="27" y="54" width="2" height="1" fill="#d7a64e"/>
<rect x="35" y="54" width="2" height="1" fill="#d7a64e"/>
<rect x="38" y="54" width="2" height="1" fill="#d7a64e"/>
<rect x="46" y="54" width="2" height="1" fill="#d7a64e"/>
<rect x="57" y="54" width="2" height="1" fill="#d7a64e"/>
<rect x="5" y="55" width="2" height="1" fill="#d7a64e"/>
<rect x="11" y="55" width="2" height="1" fill="#d7a64e"/>
<rect x="16" y="55" width="2" height="1" fill="#d7a64e"/>
<rect x="24" y="55" width="2" height="1" fill="#d7a64e"/>
<rect x="27" y="55" width="2" height="1" fill="#d7a64e"/>
<rect x="35" y="55" width="2" height="1" fill="#d7a64e"/>
<rect x="38" y="55" width="2" height="1" fill="#d7a64e"/>
<rect x="46" y="55" width="2" height="1" fill="#d7a64e"/>
<rect x="57" y="55" width="2" height="1" fill="#d7a64e"/>
<rect x="5" y="56" width="2" height="1" fill="#d7a64e"/>
<rect x="13" y="56" width="2" height="1" fill="#d7a64e"/>
<rect x="18" y="56" width="6" height="1" fill="#d7a64e"/>
<rect x="29" y="56" width="6" height="1" fill="#d7a64e"/>
<rect x="38" y="56" width="2" height="1" fill="#d7a64e"/>
<rect x="46" y="56" width="2" height="1" fill="#d7a64e"/>
<rect x="49" y="56" width="8" height="1" fill="#d7a64e"/>
<rect x="5" y="57" width="2" height="1" fill="#d7a64e"/>
<rect x="13" y="57" width="2" height="1" fill="#d7a64e"/>
<rect x="18" y="57" width="6" height="1" fill="#d7a64e"/>
<rect x="29" y="57" width="6" height="1" fill="#d7a64e"/>
<rect x="38" y="57" width="2" height="1" fill="#d7a64e"/>
<rect x="46" y="57" width="2" height="1" fill="#d7a64e"/>
<rect x="49" y="57" width="8" height="1" fill="#d7a64e"/>
<rect x="5" y="44" width="8" height="1" fill="#ffe4a3"/>
<rect x="18" y="44" width="6" height="1" fill="#ffe4a3"/>
<rect x="29" y="44" width="6" height="1" fill="#ffe4a3"/>
<rect x="38" y="44" width="2" height="1" fill="#ffe4a3"/>
<rect x="46" y="44" width="2" height="1" fill="#ffe4a3"/>
<rect x="51" y="44" width="8" height="1" fill="#ffe4a3"/>
<rect x="13" y="46" width="2" height="1" fill="#ffe4a3"/>
<rect x="16" y="46" width="2" height="1" fill="#ffe4a3"/>
<rect x="24" y="46" width="2" height="1" fill="#ffe4a3"/>
<rect x="27" y="46" width="2" height="1" fill="#ffe4a3"/>
<rect x="35" y="46" width="2" height="1" fill="#ffe4a3"/>
<rect x="40" y="46" width="2" height="1" fill="#ffe4a3"/>
<rect x="44" y="46" width="2" height="1" fill="#ffe4a3"/>
<rect x="49" y="46" width="2" height="1" fill="#ffe4a3"/>
<rect x="42" y="48" width="2" height="1" fill="#ffe4a3"/>
<rect x="7" y="50" width="6" height="1" fill="#ffe4a3"/>
<rect x="51" y="50" width="6" height="1" fill="#ffe4a3"/>
<rect x="57" y="52" width="2" height="1" fill="#ffe4a3"/>
<rect x="11" y="54" width="2" height="1" fill="#ffe4a3"/>
<rect x="13" y="56" width="2" height="1" fill="#ffe4a3"/>
<rect x="18" y="56" width="6" height="1" fill="#ffe4a3"/>
<rect x="29" y="56" width="6" height="1" fill="#ffe4a3"/>
<rect x="49" y="56" width="8" height="1" fill="#ffe4a3"/>
</svg>
